<svg xmlns="http://www.w3.org/2000/svg" width="318" height="152" viewBox="0 0 318 152">
    <defs>
        <linearGradient id="a" x1="50%" x2="50%" y1="2.613%" y2="98.021%">
            <stop offset="0%" stop-color="#F2E9D0"/>
            <stop offset="100%" stop-color="#BF980C"/>
        </linearGradient>
    </defs>
    <g fill="url(#a)" fill-rule="evenodd" transform="translate(-27 -299)">
        <path d="M48.674 330.26c-.499.68-1.043 1.745-1.632 3.196-.59 1.45-1.213 3.083-1.87 4.896a210.439 210.439 0 0 1-2.142 5.644 78.024 78.024 0 0 1-2.38 5.44c-.816 1.677-1.666 3.105-2.55 4.284-.884 1.179-1.802 1.881-2.754 2.108-.408.09-.839.102-1.292.034a4.72 4.72 0 0 1-1.326-.408 8.22 8.22 0 0 1-1.224-.714 4.765 4.765 0 0 1-.918-.816c-1.088-1.36-1.825-3.14-2.21-5.338-.385-2.199-.533-4.59-.442-7.174.09-2.584.374-5.293.85-8.126.476-2.833.997-5.576 1.564-8.228a173.496 173.496 0 0 1 1.734-7.378c.59-2.267 1.065-4.17 1.428-5.712.227-.861.714-1.337 1.462-1.428.748-.09 1.496.057 2.244.442.748.385 1.394.94 1.938 1.666.544.725.725 1.496.544 2.312-.227.952-.567 2.312-1.02 4.08-.453 1.768-.963 3.74-1.53 5.916a435.147 435.147 0 0 0-1.734 6.902 176.14 176.14 0 0 0-1.564 7.038c-.453 2.267-.782 4.352-.986 6.256-.204 1.904-.215 3.423-.034 4.556.045.272.159.635.34 1.088.181.453.397.85.646 1.19.25.34.533.555.85.646.317.09.657-.113 1.02-.612.544-.77 1.213-2.13 2.006-4.08.793-1.95 1.655-4.148 2.584-6.596.93-2.448 1.881-4.964 2.856-7.548.975-2.584 1.915-4.873 2.822-6.868.816-1.813 1.7-3.49 2.652-5.032a19.552 19.552 0 0 1 3.332-4.08 1.43 1.43 0 0 1 .646-.374.884.884 0 0 1 .714.102 9.54 9.54 0 0 1 1.87 1.428c.612.59.873 1.405.782 2.448-.136 1.133-.306 2.47-.51 4.012a300.312 300.312 0 0 0-.612 4.964 184.044 184.044 0 0 0-.544 5.44 118.57 118.57 0 0 0-.34 5.338 46.36 46.36 0 0 0 .034 4.726c.09 1.45.295 2.63.612 3.536.136.544.329.861.578.952.25.09.533.045.85-.136.499-.363.975-.873 1.428-1.53.453-.657.884-1.371 1.292-2.142 1.27-2.63 2.527-5.61 3.774-8.942a213.346 213.346 0 0 0 3.502-10.132 313.554 313.554 0 0 0 2.992-9.962c.907-3.219 1.632-6.03 2.176-8.432.09-.408.215-.952.374-1.632.159-.68.351-1.349.578-2.006a8.486 8.486 0 0 1 .782-1.7c.295-.476.646-.714 1.054-.714.544.181.963.59 1.258 1.224.295.635.521 1.337.68 2.108.159.77.238 1.541.238 2.312 0 .77-.023 1.383-.068 1.836-.499 2.992-1.179 6.2-2.04 9.622a111.324 111.324 0 0 1-3.196 10.438c-.544 1.45-1.179 3.15-1.904 5.1a80.12 80.12 0 0 1-2.448 5.848 45.136 45.136 0 0 1-2.958 5.406c-1.065 1.655-2.21 2.913-3.434 3.774a8.512 8.512 0 0 1-2.72 1.36c-.952.272-1.87.363-2.754.272a5.349 5.349 0 0 1-2.482-.918c-.77-.521-1.383-1.28-1.836-2.278-.635-1.315-1.088-2.856-1.36-4.624a46.74 46.74 0 0 1-.51-5.338 62.87 62.87 0 0 1 0-5.066c.068-1.587.147-2.879.238-3.876zm23.392 14.688c-.09-1.723.09-3.513.544-5.372a19.286 19.286 0 0 1 2.04-5.134c.907-1.564 2.051-2.845 3.434-3.842 1.383-.997 3.003-1.519 4.862-1.564.952.227 1.689.703 2.21 1.428.521.725.669 1.61.442 2.652-.181.997-.442 1.847-.782 2.55-.34.703-.918 1.44-1.734 2.21-.408.363-.975.839-1.7 1.428a40.739 40.739 0 0 0-2.108 1.836c-.68.635-1.27 1.28-1.768 1.938-.499.657-.748 1.213-.748 1.666-.136 1.179.045 1.938.544 2.278.499.34 1.145.476 1.938.408a7.512 7.512 0 0 0 2.414-.646c.816-.363 1.473-.68 1.972-.952.59-.408 1.247-.918 1.972-1.53a55.738 55.738 0 0 0 2.176-1.938c.725-.68 1.428-1.337 2.108-1.972.68-.635 1.247-1.156 1.7-1.564.363-.363.691-.703.986-1.02.295-.317.646-.59 1.054-.816.363-.09.646-.113.85-.068.204.045.17.385-.102 1.02-.363.77-.805 1.496-1.326 2.176-.521.68-1.077 1.36-1.666 2.04-.816.907-1.689 1.859-2.618 2.856a30.302 30.302 0 0 1-2.924 2.754 20.946 20.946 0 0 1-3.196 2.176 10.336 10.336 0 0 1-3.434 1.19c-2.085.136-3.797-.295-5.134-1.292-1.337-.997-2.006-2.63-2.006-4.896zm10.88-12.784c-1.224.453-2.187 1.043-2.89 1.768-.703.725-1.213 1.79-1.53 3.196a27.414 27.414 0 0 0 2.686-2.21c.793-.748 1.371-1.666 1.734-2.754zm13.736-19.856c.363-.907.669-1.632.918-2.176.25-.544.691-1.088 1.326-1.632.363-.363.782-.385 1.258-.068s.691.68.646 1.088c-.09.816-.363 1.507-.816 2.074-.453.567-.93 1.1-1.428 1.598a19.019 19.019 0 0 1-2.652 2.312c-.227.227-.329.215-.306-.034.023-.25.102-.59.238-1.02.136-.43.295-.861.476-1.292.181-.43.295-.714.34-.85zm24.956 19.176c-1.723.77-3.31 1.915-4.76 3.434a42.111 42.111 0 0 0-4.114 5.066 120.997 120.997 0 0 0-3.774 5.78 99.286 99.286 0 0 1-3.672 5.576c-.363.408-.793.521-1.292.34s-.816-.533-.952-1.054-.09-1.077.136-1.666c.317-1.088.623-2.312.918-3.672.295-1.36.578-2.788.85-4.284s.555-2.992.85-4.488c.295-1.496.6-2.924.918-4.284.09-.363.306-.646.646-.85.34-.204.714-.317 1.122-.34a1.93 1.93 0 0 1 1.088.238c.317.181.521.453.612.816.181.907.125 1.995-.17 3.264a64.514 64.514 0 0 1-.986 3.74 79.84 79.84 0 0 0 2.686-3.502 31.603 31.603 0 0 1 3.196-3.74c1.156-1.156 2.38-2.108 3.672-2.856 1.292-.748 2.64-1.054 4.046-.918.725.227 1.303.6 1.734 1.122.43.521.76 1.11.986 1.768.227.657.351 1.303.374 1.938.023.635-.034 1.179-.17 1.632a40.42 40.42 0 0 1-1.122 2.074c-.43.748-.77 1.507-1.02 2.278-.25.77-.351 1.53-.306 2.278.045.748.408 1.417 1.088 2.006.272.363.25.635-.068.816-.317.181-.748.283-1.292.306a5.716 5.716 0 0 1-1.632-.17c-.544-.136-.93-.34-1.156-.612-.725-.997-1.167-2.006-1.326-3.026a8.382 8.382 0 0 1 .102-3.094 13 13 0 0 1 1.088-3.06 22.588 22.588 0 0 1 1.7-2.856zm5.644 13.464c-.09-1.723.09-3.513.544-5.372a19.286 19.286 0 0 1 2.04-5.134c.907-1.564 2.051-2.845 3.434-3.842 1.383-.997 3.003-1.519 4.862-1.564.952.227 1.689.703 2.21 1.428.521.725.669 1.61.442 2.652-.181.997-.442 1.847-.782 2.55-.34.703-.918 1.44-1.734 2.21-.408.363-.975.839-1.7 1.428a40.738 40.738 0 0 0-2.108 1.836c-.68.635-1.27 1.28-1.768 1.938-.499.657-.748 1.213-.748 1.666-.136 1.179.045 1.938.544 2.278.499.34 1.145.476 1.938.408a7.512 7.512 0 0 0 2.414-.646c.816-.363 1.473-.68 1.972-.952.59-.408 1.247-.918 1.972-1.53a55.738 55.738 0 0 0 2.176-1.938c.725-.68 1.428-1.337 2.108-1.972.68-.635 1.247-1.156 1.7-1.564.363-.363.691-.703.986-1.02.295-.317.646-.59 1.054-.816.363-.09.646-.113.85-.068.204.045.17.385-.102 1.02-.363.77-.805 1.496-1.326 2.176-.521.68-1.077 1.36-1.666 2.04a224.42 224.42 0 0 1-2.618 2.856 30.302 30.302 0 0 1-2.924 2.754 20.946 20.946 0 0 1-3.196 2.176 10.336 10.336 0 0 1-3.434 1.19c-2.085.136-3.797-.295-5.134-1.292-1.337-.997-2.006-2.63-2.006-4.896zm10.88-12.784c-1.224.453-2.187 1.043-2.89 1.768-.703.725-1.213 1.79-1.53 3.196a27.414 27.414 0 0 0 2.686-2.21c.793-.748 1.371-1.666 1.734-2.754zm41.616 7.548a188.186 188.186 0 0 0 5.678-4.352c1.7-1.36 3.434-2.924 5.202-4.692l.204-.204c-1.179.181-2.369.385-3.57.612-1.201.227-2.391.43-3.57.612-.363.045-.782.011-1.258-.102a4.075 4.075 0 0 1-1.394-.646 4.27 4.27 0 0 1-1.156-1.224c-.317-.499-.499-1.133-.544-1.904 0-.499.113-.816.34-.952.227-.136.59-.204 1.088-.204 1.813.09 3.615.011 5.406-.238 1.79-.25 3.547-.555 5.27-.918.499-.09 1.133-.238 1.904-.442.77-.204 1.553-.397 2.346-.578a35.412 35.412 0 0 1 2.244-.442c.703-.113 1.258-.147 1.666-.102.68.09 1.02.465 1.02 1.122s-.045 1.371-.136 2.142c0 .317-.057.612-.17.884a5.753 5.753 0 0 1-.374.748c-1.632 1.677-3.003 3.264-4.114 4.76a34.515 34.515 0 0 0-2.992 4.828c-.884 1.723-1.734 3.65-2.55 5.78a394.508 394.508 0 0 0-2.788 7.548c-.09.227-.17.487-.238.782-.068.295-.17.555-.306.782-.136.227-.306.374-.51.442a1.42 1.42 0 0 1-.612.068 1.169 1.169 0 0 1-.578-.238.856.856 0 0 1-.34-.476c-.544-1.632-.827-3.196-.85-4.692a45.993 45.993 0 0 1 .17-4.624c-3.31 2.13-6.347 3.49-9.112 4.08-2.765.59-5.44.295-8.024-.884-1.904-.997-3.445-2.493-4.624-4.488-.997-1.587-1.62-3.275-1.87-5.066-.25-1.79-.306-3.57-.17-5.338.272-2.947 1.133-5.644 2.584-8.092a69.787 69.787 0 0 1 4.624-6.868 85.95 85.95 0 0 1 7.854-7.446 52.18 52.18 0 0 1 8.738-5.882 24.4 24.4 0 0 1 4.964-1.904c.272-.09.544-.26.816-.51a9.34 9.34 0 0 1 .884-.714c.635-.544 1.315-.703 2.04-.476.77.227 1.371.646 1.802 1.258.43.612.42 1.326-.034 2.142a1113.98 1113.98 0 0 1-2.686 5.474 407.802 407.802 0 0 1-2.754 5.474 35.401 35.401 0 0 1-.782 1.734 12.814 12.814 0 0 1-.85 1.53c-.499.499-.952.544-1.36.136a3.607 3.607 0 0 1-.884-1.428c-.227-.453-.385-.997-.476-1.632-.09-.635-.136-1.28-.136-1.938 0-.657.057-1.292.17-1.904a6.017 6.017 0 0 1 .51-1.598 100.947 100.947 0 0 0-8.398 6.63c-2.652 2.335-4.896 4.817-6.732 7.446-1.836 2.63-3.117 5.395-3.842 8.296-.725 2.901-.635 5.961.272 9.18.453 1.224 1.235 1.95 2.346 2.176 1.11.227 2.312.181 3.604-.136a17.343 17.343 0 0 0 3.842-1.462c1.27-.657 2.335-1.28 3.196-1.87zm20.944 5.236c-.09-1.723.09-3.513.544-5.372a19.286 19.286 0 0 1 2.04-5.134c.907-1.564 2.051-2.845 3.434-3.842 1.383-.997 3.003-1.519 4.862-1.564.952.227 1.689.703 2.21 1.428.521.725.669 1.61.442 2.652-.181.997-.442 1.847-.782 2.55-.34.703-.918 1.44-1.734 2.21-.408.363-.975.839-1.7 1.428a40.738 40.738 0 0 0-2.108 1.836c-.68.635-1.27 1.28-1.768 1.938-.499.657-.748 1.213-.748 1.666-.136 1.179.045 1.938.544 2.278.499.34 1.145.476 1.938.408a7.512 7.512 0 0 0 2.414-.646c.816-.363 1.473-.68 1.972-.952.59-.408 1.247-.918 1.972-1.53a55.738 55.738 0 0 0 2.176-1.938c.725-.68 1.428-1.337 2.108-1.972.68-.635 1.247-1.156 1.7-1.564.363-.363.691-.703.986-1.02.295-.317.646-.59 1.054-.816.363-.09.646-.113.85-.068.204.045.17.385-.102 1.02-.363.77-.805 1.496-1.326 2.176-.521.68-1.077 1.36-1.666 2.04a224.42 224.42 0 0 1-2.618 2.856 30.302 30.302 0 0 1-2.924 2.754 20.946 20.946 0 0 1-3.196 2.176 10.336 10.336 0 0 1-3.434 1.19c-2.085.136-3.797-.295-5.134-1.292-1.337-.997-2.006-2.63-2.006-4.896zm10.88-12.784c-1.224.453-2.187 1.043-2.89 1.768-.703.725-1.213 1.79-1.53 3.196a27.414 27.414 0 0 0 2.686-2.21c.793-.748 1.371-1.666 1.734-2.754zm31.824 28.764c.272.861.839 1.009 1.7.442s1.859-1.541 2.992-2.924 2.335-3.026 3.604-4.93a225.99 225.99 0 0 0 3.604-5.576 279.173 279.173 0 0 0 2.958-4.828c.839-1.405 1.394-2.29 1.666-2.652l.612-.816a6.654 6.654 0 0 1 1.292-1.224c.181-.136.397-.283.646-.442.25-.159.465-.227.646-.204.181.023.26.17.238.442-.023.272-.193.725-.51 1.36l-1.428 2.856c-.68 1.36-1.496 2.913-2.448 4.658a110.078 110.078 0 0 1-3.23 5.508 61.514 61.514 0 0 1-3.774 5.406c-1.315 1.677-2.64 3.128-3.978 4.352-1.337 1.224-2.64 2.017-3.91 2.38-.544.136-1.031.159-1.462.068a2.722 2.722 0 0 1-1.156-.544 7.743 7.743 0 0 1-.986-.952l-.952-1.088c-.408-.499-.669-1.28-.782-2.346a21.33 21.33 0 0 1-.068-3.434 26.99 26.99 0 0 1 .442-3.604c.227-1.179.453-2.13.68-2.856.227-.725.465-1.564.714-2.516.25-.952.51-1.972.782-3.06s.555-2.21.85-3.366c.295-1.156.578-2.3.85-3.434a237.333 237.333 0 0 1-4.216 6.596 93.561 93.561 0 0 1-4.93 6.8c-1.7 2.13-3.377 3.978-5.032 5.542-1.655 1.564-3.162 2.505-4.522 2.822-1.133.272-2.176.42-3.128.442-.952.023-1.79-.329-2.516-1.054-.68-.68-1.065-1.655-1.156-2.924-.09-1.27-.034-2.618.17-4.046.204-1.428.487-2.81.85-4.148.363-1.337.657-2.369.884-3.094a385.01 385.01 0 0 0 2.074-6.97c.657-2.29 1.303-4.59 1.938-6.902.68-2.04 1.303-4.137 1.87-6.29a84.545 84.545 0 0 1 1.734-5.814 37.046 37.046 0 0 0-2.754-.034l-2.822.068c-.952.023-1.881.011-2.788-.034a11.837 11.837 0 0 1-2.584-.408c-.725-.181-1.258-.476-1.598-.884-.34-.408-.499-.816-.476-1.224.023-.408.25-.76.68-1.054.43-.295 1.054-.442 1.87-.442.499 0 1.315.023 2.448.068 1.133.045 2.312.068 3.536.068 1.224 0 2.357-.034 3.4-.102 1.043-.068 1.723-.17 2.04-.306.136-.045.204-.113.204-.204.272-.816.657-1.927 1.156-3.332.499-1.405.997-2.856 1.496-4.352a119.31 119.31 0 0 1 1.462-4.148c.476-1.27.827-2.176 1.054-2.72.181-.408.555-.578 1.122-.51.567.068 1.156.26 1.768.578a6 6 0 0 1 1.598 1.19c.453.476.657.918.612 1.326-.09.59-.306 1.428-.646 2.516s-.714 2.233-1.122 3.434a204.434 204.434 0 0 1-1.224 3.502c-.408 1.133-.703 2.063-.884 2.788 2.81-.09 5.36-.136 7.65-.136h7.242c.09 0 .136-.045.136-.136a183.404 183.404 0 0 1 2.754-7.684c.295-.77.555-1.428.782-1.972.181-.408.555-.578 1.122-.51.567.068 1.156.26 1.768.578a6 6 0 0 1 1.598 1.19c.453.476.657.918.612 1.326a11.984 11.984 0 0 1-.952 3.468c-.499 1.133-.93 2.425-1.292 3.876 2.856-.045 5.315-.08 7.378-.102 2.063-.023 4.069-.034 6.018-.034.635 0 1.27.011 1.904.034.635.023 1.122.08 1.462.17.34.09.42.215.238.374-.181.159-.77.374-1.768.646-2.856.907-5.621 1.598-8.296 2.074a89.814 89.814 0 0 1-7.888 1.054c-.227.045-.329.09-.306.136.023.045-.034.181-.17.408 0 .045-.023.09-.068.136-.045.045-.068.09-.068.136a206.575 206.575 0 0 0-2.414 7.106 399.968 399.968 0 0 0-2.652 8.568 480.871 480.871 0 0 0-2.55 8.874 216.904 216.904 0 0 0-2.074 8.024c-.567 2.403-.986 4.42-1.258 6.052-.272 1.632-.295 2.607-.068 2.924zm-21.012-4.76c.227.635.68.816 1.36.544.68-.272 1.507-.873 2.482-1.802.975-.93 2.063-2.097 3.264-3.502a101.843 101.843 0 0 0 3.638-4.522c1.224-1.61 2.425-3.23 3.604-4.862a293.822 293.822 0 0 0 3.23-4.556c.975-1.405 1.79-2.607 2.448-3.604.657-.997 1.1-1.632 1.326-1.904l.612-.816.476-.544c.68-2.04 1.303-4.125 1.87-6.256a87.185 87.185 0 0 1 1.734-5.78 59.265 59.265 0 0 0-3.162-.068h-4.08c-1.428 0-2.833.023-4.216.068-1.383.045-2.573.068-3.57.068-.77 1.95-1.598 4.182-2.482 6.698a440.752 440.752 0 0 0-2.652 7.786 349.82 349.82 0 0 0-2.516 7.922 196.3 196.3 0 0 0-2.04 7.14c-.567 2.153-.975 3.944-1.224 5.372-.25 1.428-.283 2.3-.102 2.618zm53.516-19.516l.816-.816h.068v.136c.09 1.043 0 1.825-.272 2.346-.272.521-.408.805-.408.85a87.187 87.187 0 0 1-1.836 2.618 198.182 198.182 0 0 1-2.414 3.264 85.838 85.838 0 0 1-2.414 3.06c-.77.93-1.383 1.598-1.836 2.006a16.276 16.276 0 0 1-1.768 1.768c-.227.181-.533.34-.918.476a7.051 7.051 0 0 1-1.19.306c-.408.068-.805.08-1.19.034-.385-.045-.691-.159-.918-.34-.77-.499-1.371-1.1-1.802-1.802a4.28 4.28 0 0 1-.646-2.278c-.136-2.493.08-5.043.646-7.65.567-2.607 1.235-4.975 2.006-7.106a11.14 11.14 0 0 1 .952-1.972c.408-.408.884-.521 1.428-.34.544.181 1.031.555 1.462 1.122.43.567.748 1.258.952 2.074.204.816.17 1.632-.102 2.448-.227.77-.43 1.507-.612 2.21-.181.703-.385 1.44-.612 2.21-.09.363-.238.884-.442 1.564-.204.68-.42 1.394-.646 2.142-.227.748-.43 1.462-.612 2.142-.181.68-.295 1.201-.34 1.564-.09.68.09.861.544.544.453-.317 1.065-.861 1.836-1.632a368.53 368.53 0 0 0 10.268-10.948zm-9.52-8.16c-.317.317-.544.317-.68 0a7.752 7.752 0 0 1-1.156-2.856c-.181-.997-.09-1.995.272-2.992.181-.59.578-1.077 1.19-1.462s1.167-.51 1.666-.374c.272.09.567.238.884.442.317.204.521.442.612.714.317 1.224.147 2.403-.51 3.536a14.468 14.468 0 0 1-2.278 2.992zm9.248 20.332c-.181.363-.317.59-.408.68-.725.499-1.224.363-1.496-.408-.09-.363-.159-.703-.204-1.02a7.222 7.222 0 0 1-.068-1.02 32.929 32.929 0 0 1 0-2.992c.136-1.133.408-2.369.816-3.706a38.225 38.225 0 0 1 1.462-3.978 51.444 51.444 0 0 1 1.768-3.706c.612-1.156 1.19-2.097 1.734-2.822a1.458 1.458 0 0 1 1.122-.68c.476-.045.94.068 1.394.34.453.272.816.657 1.088 1.156.272.499.34 1.065.204 1.7-.045.045-.136.181-.272.408-.136.227-.272.476-.408.748-.136.272-.272.533-.408.782-.136.25-.227.397-.272.442.499-.363.997-.77 1.496-1.224a27.144 27.144 0 0 1 1.53-1.292c.521-.408 1.054-.76 1.598-1.054a3.654 3.654 0 0 1 1.768-.442c.77 0 1.45.215 2.04.646a5.65 5.65 0 0 1 1.462 1.564c.385.612.623 1.27.714 1.972.09.703.045 1.371-.136 2.006a16.562 16.562 0 0 1-1.7 3.57c-.725 1.156-1.462 2.3-2.21 3.434a49.356 49.356 0 0 0-2.074 3.434 13.463 13.463 0 0 0-1.36 3.57c-.272.952-.283 1.541-.034 1.768.25.227.578.272.986.136a4.597 4.597 0 0 0 1.258-.68c.43-.317.737-.544.918-.68a45.424 45.424 0 0 0 5.236-4.794 207.307 207.307 0 0 1 4.828-4.998c1.36-1.36 2.21-2.097 2.55-2.21.34-.113.385.113.136.68-.25.567-.657 1.326-1.224 2.278s-1.077 1.79-1.53 2.516c-.544.907-1.292 2.006-2.244 3.298a37.342 37.342 0 0 1-3.162 3.74c-1.156 1.201-2.346 2.221-3.57 3.06-1.224.839-2.357 1.258-3.4 1.258-.77 0-1.45-.17-2.04-.51a5.391 5.391 0 0 1-1.496-1.258 5.142 5.142 0 0 1-.918-1.7 6.191 6.191 0 0 1-.306-1.904c0-2.267.465-4.488 1.394-6.664a56.618 56.618 0 0 1 2.958-5.984c.499-.952.635-1.61.408-1.972-.227-.363-.884-.295-1.972.204-.907.408-1.745 1.145-2.516 2.21a28.916 28.916 0 0 0-2.142 3.468 61.527 61.527 0 0 0-1.802 3.706c-.544 1.224-1.043 2.199-1.496 2.924zm26.724-4.556c.272.272.782.193 1.53-.238.748-.43 1.564-.986 2.448-1.666.884-.68 1.802-1.394 2.754-2.142s1.768-1.326 2.448-1.734c.272-.181.714-.408 1.326-.68a9.328 9.328 0 0 1 1.904-.612c.657-.136 1.258-.159 1.802-.068.544.09.861.408.952.952.09.816.147 1.632.17 2.448.023.816.08 1.677.17 2.584v.68a41.334 41.334 0 0 1 2.822-1.938c.975-.612 1.915-1.19 2.822-1.734 1.043-.59 2.051-1.167 3.026-1.734a17.35 17.35 0 0 1 3.026-1.394l.136.068v.068a.968.968 0 0 0-.17.204.968.968 0 0 1-.17.204 42.324 42.324 0 0 1-2.414 2.482l-2.414 2.278a41.885 41.885 0 0 1-2.686 2.482 91.332 91.332 0 0 0-2.754 2.414c-.725.725-1.235 1.45-1.53 2.176a17.472 17.472 0 0 0-.782 2.516 628.422 628.422 0 0 0-2.822 9.452 83.091 83.091 0 0 1-3.502 9.758c-1.36 3.15-3.003 6.04-4.93 8.67-1.927 2.63-4.25 4.67-6.97 6.12-.68.09-1.349.08-2.006-.034-.657-.113-1.28-.42-1.87-.918-.952-.816-1.587-1.79-1.904-2.924a10.944 10.944 0 0 1-.374-3.57 16.09 16.09 0 0 1 .646-3.706c.363-1.224.748-2.29 1.156-3.196a52.285 52.285 0 0 1 3.91-7.31 65.5 65.5 0 0 1 4.76-6.494 72.924 72.924 0 0 1 5.406-5.814 144.318 144.318 0 0 1 5.848-5.338c.181-.181.351-.578.51-1.19.159-.612.272-1.201.34-1.768s.057-1.02-.034-1.36c-.09-.34-.317-.329-.68.034-.907.725-1.87 1.45-2.89 2.176a23.882 23.882 0 0 1-3.162 1.904 18.736 18.736 0 0 1-3.332 1.292 8.666 8.666 0 0 1-3.4.272c-1.043-.181-1.859-.555-2.448-1.122a4.819 4.819 0 0 1-1.258-1.972 7.7 7.7 0 0 1-.374-2.448c0-.884.113-1.734.34-2.55.408-1.677 1.11-3.173 2.108-4.488.997-1.315 2.335-2.221 4.012-2.72 2.584-.816 5.077-.725 7.48.272.499.227.94.453 1.326.68.385.227.646.567.782 1.02.453.997.09 1.428-1.088 1.292a16.577 16.577 0 0 0-1.53-.204 16.936 16.936 0 0 0-1.462-.068c-1.405 0-2.595.351-3.57 1.054-.975.703-1.745 1.53-2.312 2.482-.567.952-.94 1.904-1.122 2.856-.181.952-.181 1.7 0 2.244zm8.772 8.908a9035.228 9035.228 0 0 1-4.25 4.658 71.327 71.327 0 0 0-4.012 4.794 49.38 49.38 0 0 0-3.434 5.134 31.366 31.366 0 0 0-2.584 5.678 22.865 22.865 0 0 0-.85 3.774c-.159 1.201-.08 2.437.238 3.706.907-.453 1.813-1.247 2.72-2.38a30.888 30.888 0 0 0 2.55-3.74 63.305 63.305 0 0 0 2.142-3.978 520.818 520.818 0 0 1 1.564-3.162c.317-.635.805-1.643 1.462-3.026a135.526 135.526 0 0 0 1.972-4.352 89.969 89.969 0 0 0 1.734-4.284c.499-1.337.748-2.278.748-2.822zM167.914 415.212a49.943 49.943 0 0 1 1.734-5.202c.703-1.79 1.45-3.57 2.244-5.338.793-1.768 1.598-3.49 2.414-5.168.816-1.677 1.587-3.264 2.312-4.76-2.13 1.315-4.273 2.901-6.426 4.76a70.125 70.125 0 0 0-6.29 6.188 72.414 72.414 0 0 0-5.78 7.344 69.567 69.567 0 0 0-4.862 8.194 54.506 54.506 0 0 0-3.502 8.738 41.84 41.84 0 0 0-1.7 9.044c-.227.499-.499.76-.816.782a3.815 3.815 0 0 1-1.088-.102c-1.043-.272-1.723-1.031-2.04-2.278-.317-1.247-.408-2.697-.272-4.352.136-1.655.42-3.366.85-5.134a93.56 93.56 0 0 1 1.258-4.692c1.133-3.627 2.369-7.004 3.706-10.132a212.668 212.668 0 0 1 4.182-9.18c1.45-2.992 2.913-5.984 4.386-8.976a160.52 160.52 0 0 0 4.318-9.588c.272-.272.737-.306 1.394-.102.657.204 1.326.533 2.006.986a9.49 9.49 0 0 1 1.836 1.598c.544.612.816 1.19.816 1.734 0 .59-.272 1.462-.816 2.618a76.84 76.84 0 0 1-1.938 3.808c-.748 1.383-1.519 2.81-2.312 4.284-.793 1.473-1.44 2.822-1.938 4.046a214.857 214.857 0 0 1 8.364-8.568 54.97 54.97 0 0 1 9.112-7.14c.77-.408 1.507-.499 2.21-.272.703.227 1.28.646 1.734 1.258.453.612.77 1.337.952 2.176a4.354 4.354 0 0 1-.136 2.414c-.363.861-.816 1.96-1.36 3.298l-1.7 4.182c-.59 1.45-1.156 2.856-1.7 4.216a383.62 383.62 0 0 0-1.292 3.264c1.405-1.813 3.15-3.74 5.236-5.78 2.085-2.04 4.216-4 6.392-5.882a169.782 169.782 0 0 1 6.256-5.168c1.995-1.564 3.65-2.8 4.964-3.706.635-.453 1.326-.408 2.074.136.748.544 1.394 1.258 1.938 2.142.544.884.895 1.78 1.054 2.686.159.907.011 1.496-.442 1.768-2.176 3.717-4.091 7.163-5.746 10.336a79.32 79.32 0 0 0-4.216 9.52 55.605 55.605 0 0 0-2.584 9.792c-.567 3.355-.85 7.05-.85 11.084 0 .227-.113.374-.34.442a2.008 2.008 0 0 1-.544.102c-.77-.045-1.417-.159-1.938-.34a4.842 4.842 0 0 1-1.394-.748c-1.36-1.088-2.142-2.72-2.346-4.896-.204-2.176-.023-4.601.544-7.276.567-2.675 1.394-5.485 2.482-8.432a106.217 106.217 0 0 1 3.502-8.398c1.247-2.652 2.46-5.02 3.638-7.106 1.179-2.085 2.108-3.627 2.788-4.624-2.04 1.224-4.205 2.867-6.494 4.93a123.938 123.938 0 0 0-6.8 6.63 134.697 134.697 0 0 0-6.392 7.208c-2.017 2.448-3.729 4.647-5.134 6.596-.453.181-1.009.193-1.666.034s-1.292-.465-1.904-.918a5.403 5.403 0 0 1-1.496-1.7c-.385-.68-.533-1.473-.442-2.38zm43.18 15.64c-.408.317-.861.669-1.36 1.054a9.904 9.904 0 0 1-1.632 1.02 8.765 8.765 0 0 1-1.87.68 4.902 4.902 0 0 1-2.074.034 3.887 3.887 0 0 1-1.496-.578 7.976 7.976 0 0 1-1.292-1.054c-.408-.408-.657-.997-.748-1.768-.09-.77-.113-1.383-.068-1.836.227-1.179.544-2.425.952-3.74a31.053 31.053 0 0 1 1.496-3.876 21.69 21.69 0 0 1 3.808-5.576c1.541-1.632 3.4-2.675 5.576-3.128a5.882 5.882 0 0 1 2.278-.102c.793.113 1.485.374 2.074.782.59.408 1.043.918 1.36 1.53.317.612.385 1.28.204 2.006-.09.272-.193.544-.306.816a2.46 2.46 0 0 1-.408.68c-.159.181-.306.283-.442.306-.136.023-.272-.102-.408-.374a11.582 11.582 0 0 1-.17-.578 3.469 3.469 0 0 0-.306-.748 2.314 2.314 0 0 0-.578-.68c-.25-.204-.578-.306-.986-.306-.861 0-1.836.533-2.924 1.598-1.088 1.065-2.13 2.312-3.128 3.74a35.85 35.85 0 0 0-2.584 4.284c-.725 1.428-1.179 2.505-1.36 3.23-.272 1.179-.25 1.802.068 1.87.317.068.816-.181 1.496-.748s1.45-1.349 2.312-2.346a88.697 88.697 0 0 0 2.448-2.958c.77-.975 1.44-1.836 2.006-2.584.567-.748.873-1.145.918-1.19.59-.453 1.179-.657 1.768-.612.59.045 1.1.26 1.53.646.43.385.725.861.884 1.428.159.567.102 1.145-.17 1.734a42.467 42.467 0 0 1-1.258 2.584c-.521.997-.85 1.881-.986 2.652-.136 1.179 0 1.95.408 2.312.408.363 1.156.34 2.244-.068.861-.363 1.768-1.009 2.72-1.938a58.88 58.88 0 0 0 2.822-2.958 205.76 205.76 0 0 0 2.618-2.992c.816-.952 1.496-1.655 2.04-2.108.136-.136.306-.283.51-.442.204-.159.374-.193.51-.102.227.09.351.215.374.374.023.159.034.329.034.51a34.054 34.054 0 0 1-2.108 4.284 26.873 26.873 0 0 1-2.754 3.91 20.602 20.602 0 0 1-3.4 3.196 16.332 16.332 0 0 1-4.046 2.21c-.907.317-1.723.42-2.448.306a4.69 4.69 0 0 1-1.972-.782 4.729 4.729 0 0 1-1.428-1.564 6.495 6.495 0 0 1-.748-2.04zm33.252-15.368c-1.723.77-3.31 1.915-4.76 3.434a42.111 42.111 0 0 0-4.114 5.066 120.997 120.997 0 0 0-3.774 5.78 99.286 99.286 0 0 1-3.672 5.576c-.363.408-.793.521-1.292.34s-.816-.533-.952-1.054-.09-1.077.136-1.666c.317-1.088.623-2.312.918-3.672.295-1.36.578-2.788.85-4.284s.555-2.992.85-4.488c.295-1.496.6-2.924.918-4.284.09-.363.306-.646.646-.85.34-.204.714-.317 1.122-.34a1.93 1.93 0 0 1 1.088.238c.317.181.521.453.612.816.181.907.125 1.995-.17 3.264a64.514 64.514 0 0 1-.986 3.74 79.841 79.841 0 0 0 2.686-3.502 31.603 31.603 0 0 1 3.196-3.74c1.156-1.156 2.38-2.108 3.672-2.856 1.292-.748 2.64-1.054 4.046-.918.725.227 1.303.6 1.734 1.122.43.521.76 1.11.986 1.768.227.657.351 1.303.374 1.938.023.635-.034 1.179-.17 1.632a40.42 40.42 0 0 1-1.122 2.074c-.43.748-.77 1.507-1.02 2.278-.25.77-.351 1.53-.306 2.278.045.748.408 1.417 1.088 2.006.272.363.25.635-.068.816-.317.181-.748.283-1.292.306a5.716 5.716 0 0 1-1.632-.17c-.544-.136-.93-.34-1.156-.612-.725-.997-1.167-2.006-1.326-3.026a8.382 8.382 0 0 1 .102-3.094 13 13 0 0 1 1.088-3.06 22.588 22.588 0 0 1 1.7-2.856zm23.868 0c-1.723.77-3.31 1.915-4.76 3.434a42.111 42.111 0 0 0-4.114 5.066 120.997 120.997 0 0 0-3.774 5.78 99.286 99.286 0 0 1-3.672 5.576c-.363.408-.793.521-1.292.34s-.816-.533-.952-1.054-.09-1.077.136-1.666c.317-1.088.623-2.312.918-3.672.295-1.36.578-2.788.85-4.284s.555-2.992.85-4.488c.295-1.496.6-2.924.918-4.284.09-.363.306-.646.646-.85.34-.204.714-.317 1.122-.34a1.93 1.93 0 0 1 1.088.238c.317.181.521.453.612.816.181.907.125 1.995-.17 3.264a64.514 64.514 0 0 1-.986 3.74 79.841 79.841 0 0 0 2.686-3.502 31.603 31.603 0 0 1 3.196-3.74c1.156-1.156 2.38-2.108 3.672-2.856 1.292-.748 2.64-1.054 4.046-.918.725.227 1.303.6 1.734 1.122.43.521.76 1.11.986 1.768.227.657.351 1.303.374 1.938.023.635-.034 1.179-.17 1.632a40.42 40.42 0 0 1-1.122 2.074c-.43.748-.77 1.507-1.02 2.278-.25.77-.351 1.53-.306 2.278.045.748.408 1.417 1.088 2.006.272.363.25.635-.068.816-.317.181-.748.283-1.292.306a5.716 5.716 0 0 1-1.632-.17c-.544-.136-.93-.34-1.156-.612-.725-.997-1.167-2.006-1.326-3.026a8.382 8.382 0 0 1 .102-3.094 13 13 0 0 1 1.088-3.06 22.588 22.588 0 0 1 1.7-2.856zm22.848 5.168l.816-.816h.068v.136c.09 1.043 0 1.825-.272 2.346-.272.521-.408.805-.408.85a87.188 87.188 0 0 1-1.836 2.618 198.18 198.18 0 0 1-2.414 3.264 85.838 85.838 0 0 1-2.414 3.06c-.77.93-1.383 1.598-1.836 2.006a16.276 16.276 0 0 1-1.768 1.768c-.227.181-.533.34-.918.476a7.051 7.051 0 0 1-1.19.306c-.408.068-.805.08-1.19.034-.385-.045-.691-.159-.918-.34-.77-.499-1.371-1.1-1.802-1.802a4.28 4.28 0 0 1-.646-2.278c-.136-2.493.08-5.043.646-7.65.567-2.607 1.235-4.975 2.006-7.106a11.14 11.14 0 0 1 .952-1.972c.408-.408.884-.521 1.428-.34.544.181 1.031.555 1.462 1.122.43.567.748 1.258.952 2.074.204.816.17 1.632-.102 2.448-.227.77-.43 1.507-.612 2.21-.181.703-.385 1.44-.612 2.21-.09.363-.238.884-.442 1.564-.204.68-.42 1.394-.646 2.142-.227.748-.43 1.462-.612 2.142-.181.68-.295 1.201-.34 1.564-.09.68.09.861.544.544.453-.317 1.065-.861 1.836-1.632a368.534 368.534 0 0 0 10.268-10.948zm-9.52-8.16c-.317.317-.544.317-.68 0a7.752 7.752 0 0 1-1.156-2.856c-.181-.997-.09-1.995.272-2.992.181-.59.578-1.077 1.19-1.462s1.167-.51 1.666-.374c.272.09.567.238.884.442.317.204.521.442.612.714.317 1.224.147 2.403-.51 3.536a14.468 14.468 0 0 1-2.278 2.992zm6.936 16.456c-.09-1.723.09-3.513.544-5.372a19.286 19.286 0 0 1 2.04-5.134c.907-1.564 2.051-2.845 3.434-3.842 1.383-.997 3.003-1.519 4.862-1.564.952.227 1.689.703 2.21 1.428.521.725.669 1.61.442 2.652-.181.997-.442 1.847-.782 2.55-.34.703-.918 1.44-1.734 2.21-.408.363-.975.839-1.7 1.428a40.738 40.738 0 0 0-2.108 1.836c-.68.635-1.27 1.28-1.768 1.938-.499.657-.748 1.213-.748 1.666-.136 1.179.045 1.938.544 2.278.499.34 1.145.476 1.938.408a7.512 7.512 0 0 0 2.414-.646c.816-.363 1.473-.68 1.972-.952.59-.408 1.247-.918 1.972-1.53a55.738 55.738 0 0 0 2.176-1.938c.725-.68 1.428-1.337 2.108-1.972a131.84 131.84 0 0 1 1.7-1.564c.363-.363.691-.703.986-1.02.295-.317.646-.59 1.054-.816.363-.09.646-.113.85-.068.204.045.17.385-.102 1.02-.363.77-.805 1.496-1.326 2.176-.521.68-1.077 1.36-1.666 2.04a224.42 224.42 0 0 1-2.618 2.856 30.302 30.302 0 0 1-2.924 2.754 20.946 20.946 0 0 1-3.196 2.176 10.336 10.336 0 0 1-3.434 1.19c-2.085.136-3.797-.295-5.134-1.292-1.337-.997-2.006-2.63-2.006-4.896zm10.88-12.784c-1.224.453-2.187 1.043-2.89 1.768-.703.725-1.213 1.79-1.53 3.196a27.414 27.414 0 0 0 2.686-2.21c.793-.748 1.371-1.666 1.734-2.754zm22.916 0c0-.09.023-.159.068-.204 0-.045.023-.068.068-.068 1.405-2.992 2.8-5.882 4.182-8.67a204.597 204.597 0 0 1 4.216-8.058 120.863 120.863 0 0 1 4.488-7.48 100.753 100.753 0 0 1 4.998-7.004c.997-1.133 1.802-1.632 2.414-1.496.612.136 1.065.6 1.36 1.394.295.793.465 1.734.51 2.822.045 1.088.023 1.972-.068 2.652a58.04 58.04 0 0 1-2.754 8.432c-1.156 2.81-2.46 5.61-3.91 8.398a146.078 146.078 0 0 1-4.692 8.33 818.543 818.543 0 0 1-5.1 8.296 3.027 3.027 0 0 0-.51.85 8.491 8.491 0 0 0-.306.986c-.09.408-.193.986-.306 1.734-.113.748-.181 1.53-.204 2.346-.023.816.034 1.564.17 2.244.136.68.385 1.11.748 1.292.544.272 1.337.215 2.38-.17s2.153-.963 3.332-1.734a39.145 39.145 0 0 0 3.57-2.652c1.201-.997 2.233-1.95 3.094-2.856.09-.09.227-.08.408.034.181.113.329.283.442.51.113.227.159.487.136.782-.023.295-.193.578-.51.85a232.604 232.604 0 0 0-3.842 3.434 51.13 51.13 0 0 1-4.76 3.842c-1.655 1.179-3.275 2.074-4.862 2.686-1.587.612-2.947.623-4.08.034-1.043-.544-1.78-1.417-2.21-2.618-.43-1.201-.669-2.516-.714-3.944a28.893 28.893 0 0 1 .17-4.216c.159-1.383.306-2.482.442-3.298-.09.09-.17.215-.238.374a2.741 2.741 0 0 1-.238.442 78.558 78.558 0 0 0-2.176 2.618 22.596 22.596 0 0 1-2.686 2.822c-.975.861-2.006 1.519-3.094 1.972-1.088.453-2.199.476-3.332.068a6.82 6.82 0 0 1-1.666-1.326c-.476-.521-.714-1.213-.714-2.074 0-1.677.329-3.377.986-5.1.657-1.723 1.553-3.253 2.686-4.59a13.03 13.03 0 0 1 4.012-3.196c1.541-.793 3.196-1.122 4.964-.986.499.09 1.009.215 1.53.374.521.159.963.442 1.326.85l.272.272zM342.13 392.5a121.117 121.117 0 0 0-7.616 13.532 128.449 128.449 0 0 0-5.848 14.348 281.108 281.108 0 0 1 3.706-6.528 215.234 215.234 0 0 0 4.182-7.514 101.286 101.286 0 0 0 3.604-7.48c1.043-2.425 1.7-4.545 1.972-6.358zm-30.532 33.932l.136.204a365.98 365.98 0 0 1 4.658-3.638 142.105 142.105 0 0 1 4.862-3.57c-.952-.453-1.983-.51-3.094-.17-1.11.34-2.153.907-3.128 1.7a11.59 11.59 0 0 0-2.448 2.72c-.657 1.02-.986 1.938-.986 2.754z"/>
    </g>
</svg>
