<svg xmlns="http://www.w3.org/2000/svg" xmlns:xlink="http://www.w3.org/1999/xlink" width="146" height="128" viewBox="0 0 146 128">
    <defs>
        <rect id="a" width="123" height="123" x="7" rx="1"/>
        <mask id="c" width="123" height="123" x="0" y="0" fill="#fff">
            <use xlink:href="#a"/>
        </mask>
        <rect id="b" width="123" height="123" x="12" y="5" rx="1"/>
        <mask id="d" width="123" height="123" x="0" y="0" fill="#fff">
            <use xlink:href="#b"/>
        </mask>
        <path id="e" d="M0 29.999V.525h40.195v29.474H0z"/>
        <path id="g" d="M.423.862h20.676v22.85H.423V.861z"/>
        <path id="i" d="M14.726.769v7.588H.962V.769h13.764z"/>
    </defs>
    <g fill="none" fill-rule="evenodd">
        <use stroke="#B7CDC1" stroke-width="2" mask="url(#c)" transform="rotate(90 68.5 61.5)" xlink:href="#a"/>
        <use stroke="#B7CDC1" stroke-width="2" mask="url(#d)" transform="rotate(90 73.5 66.5)" xlink:href="#b"/>
        <g transform="translate(0 75.138)">
            <mask id="f" fill="#fff">
                <use xlink:href="#e"/>
            </mask>
            <path fill="#B7CDC1" d="M11.513.895a.65.65 0 0 1-.046.712C9.911 3.899 8.433 6.621 7.029 9.773a92.214 92.214 0 0 0-3.604 9.426c-.834 2.966-1.25 4.862-1.25 5.686-.008.72.298.724.916.012.7-.818 2.166-3.086 4.402-6.804 2.148-3.228 4.024-5.738 5.626-7.528.99-1.11 1.89-1.96 2.7-2.546.976-.714 1.842-1.07 2.604-1.07a.85.85 0 0 1 .506.19c.17.128.284.262.338.404.08.19.108.428.084.714-.024.382-.134.932-.332 1.654-.088.292-.196.642-.322 1.046-.128.404-.242.764-.344 1.076l-.416 1.262c-.176.526-.31.93-.406 1.206-.674 2.046-1.09 3.536-1.248 4.474 0 .236.026.394.084.474.126.192.498.004 1.116-.558.31-.326.832-.88 1.572-1.666a244.42 244.42 0 0 1 1.676-1.772c1.484-1.546 2.7-2.712 3.652-3.496.696-.58 1.296-1.012 1.794-1.298.502-.284 1.004-.428 1.512-.428.142 0 .288.032.442.096.148.064.266.15.354.262.158.19.242.428.25.714.016.308-.058.744-.226 1.308-.086.3-.26.824-.524 1.57-.262.746-.45 1.316-.57 1.712-.396 1.324-.524 2.3-.38 2.926.064.302.194.524.392.666.262.182.654.274 1.178.274.428 0 1.09-.228 1.986-.684.896-.456 1.836-1.048 2.818-1.778 1.84-1.364 3.704-2.99 5.592-4.876a.623.623 0 0 1 .41-.214.597.597 0 0 1 .404.088c.114.076.21.17.286.286.074.114.106.25.09.404a.658.658 0 0 1-.216.41c-1.926 1.926-3.84 3.596-5.746 5.008-1.186.888-2.234 1.566-3.132 2.034-.9.466-1.73.702-2.492.702-.816 0-1.474-.178-1.974-.536-.484-.348-.798-.844-.94-1.486a3.938 3.938 0 0 1-.102-.858c-.004-.3.022-.612.072-.932.052-.322.112-.62.178-.898.068-.278.152-.59.256-.94.388-1.278.584-2.11.584-2.498.008-.738-.464-.73-1.416.024-.92.76-2.098 1.89-3.534 3.388-.38.398-.936.988-1.672 1.774-.732.784-1.26 1.34-1.586 1.666-.508.53-.912.924-1.214 1.176-.182.16-.348.286-.5.38a3.141 3.141 0 0 1-.172.108 1.024 1.024 0 0 1-.178.066 1.199 1.199 0 0 1-1.172-.316 1.597 1.597 0 0 1-.38-.76c-.088-.43-.062-1.016.072-1.762.166-.998.598-2.552 1.294-4.662.096-.294.232-.7.406-1.22.176-.518.314-.934.418-1.248.102-.312.214-.666.338-1.058.122-.394.224-.732.304-1.018.07-.246.138-.566.202-.964a1.05 1.05 0 0 1-.178.054 2.832 2.832 0 0 0-.204.06l-.184.066a1.322 1.322 0 0 0-.22.096 6.722 6.722 0 0 0-.464.284c-.738.54-1.566 1.328-2.486 2.366-1.562 1.738-3.398 4.192-5.508 7.364-1.132 1.704-2.702 4.178-4.708 7.42-.754 1.23-1.27 2.056-1.548 2.476a8.796 8.796 0 0 1-.5.726c-.078.102-.15.186-.212.25a1.163 1.163 0 0 1-.156.13.732.732 0 0 1-.428.142.901.901 0 0 1-.53-.184c-.17-.124-.29-.26-.362-.41-.102-.222-.166-.508-.19-.856-.04-.564.024-1.344.19-2.344.16-.968.402-2.086.726-3.352.326-1.27.716-2.626 1.178-4.07a94.178 94.178 0 0 1 3.668-9.598c1.424-3.196 2.942-5.978 4.55-8.35a.635.635 0 0 1 .56-.31h.024c.276 0 .48.124.606.37" mask="url(#f)"/>
        </g>
        <path fill="#B7CDC1" d="M40.261 84.288a.63.63 0 0 1 .274.1c.096.06.166.134.214.22.126.23.146.544.058.94-.088.428-.264.718-.534.868a.53.53 0 0 1-.452.036.565.565 0 0 1-.298-.25 1.125 1.125 0 0 1-.142-.464 3.645 3.645 0 0 1-.048-.582c0-.088.024-.162.072-.226v-.024c0-.126.048-.234.144-.322l.034-.036a.832.832 0 0 0 .126-.076c.05-.036.102-.07.16-.1.118-.048.23-.078.334-.084h.058zm-.13 3.258a.676.676 0 0 1 .188.476.77.77 0 0 1-.022.19 6.36 6.36 0 0 0-.232 1.492c-.012.464.042.838.158 1.126.128.316.318.548.568.696.25.146.64.22 1.172.22a9.622 9.622 0 0 0 4.792-1.286 16.635 16.635 0 0 0 1.964-1.32c.594-.468 1.192-1 1.796-1.594a.66.66 0 0 1 .486-.202c.19 0 .354.068.488.202a.67.67 0 0 1 .202.488.67.67 0 0 1-.202.488c-.508.498-1.008.956-1.5 1.374-.49.416-1.054.83-1.686 1.242-.636.412-1.272.76-1.912 1.042-.638.28-1.338.508-2.104.682a10.34 10.34 0 0 1-2.324.262c-.732 0-1.362-.16-1.892-.482-.53-.32-.904-.75-1.118-1.29-.382-.904-.378-2.068.012-3.496a.658.658 0 0 1 .232-.358.673.673 0 0 1 .398-.166h.07c.184.008.338.08.466.214z"/>
        <g transform="translate(50 72.138)">
            <mask id="h" fill="#fff">
                <use xlink:href="#g"/>
            </mask>
            <path fill="#B7CDC1" d="M6.812 2.461a1.284 1.284 0 0 0-.328.262l-.166.184c-.46.554-.944 1.324-1.452 2.308-.878 1.744-1.486 3.286-1.82 4.626-.19.77-.192 1.126-.01 1.072.318-.088 1.022-1.354 2.116-3.796.834-1.728 1.376-3.06 1.628-3.996a2.91 2.91 0 0 0 .098-.702.493.493 0 0 1-.066.042m1.112-1.29c.19.182.308.428.356.738.072.388.016.912-.166 1.57-.268 1.022-.844 2.438-1.724 4.244-.77 1.586-1.766 3.466-2.986 5.638-.634 1.126-1.054 2.174-1.26 3.142a7.324 7.324 0 0 0-.012 2.972c.268.92.696 1.614 1.284 2.082.642.516 1.488.774 2.532.774 1.618 0 3.192-.226 4.724-.678a19.92 19.92 0 0 0 4.268-1.81c1.152-.658 2.158-1.38 3.022-2.17.866-.79 1.474-1.488 1.832-2.098a.646.646 0 0 1 .34-.328.58.58 0 0 1 .416-.024c.132.044.252.112.362.208.11.096.174.22.186.368a.845.845 0 0 1-.114.464c-.446.77-1.132 1.578-2.064 2.422-.932.844-2.028 1.63-3.288 2.36a21.49 21.49 0 0 1-4.592 1.94 17.97 17.97 0 0 1-5.092.726c-1.37 0-2.502-.358-3.388-1.072-.818-.658-1.4-1.586-1.748-2.784a9.665 9.665 0 0 1-.34-1.842c-.06-.65-.064-1.322-.018-2.016.048-.694.112-1.328.19-1.904.08-.574.188-1.226.32-1.956.296-1.34.678-2.666 1.148-3.978a31.044 31.044 0 0 1 1.53-3.574c.554-1.08 1.094-1.932 1.618-2.558.316-.388.612-.68.886-.874.274-.194.588-.292.946-.292.334 0 .61.102.832.31" mask="url(#h)"/>
        </g>
        <path fill="#B7CDC1" d="M71.566 85.917a1.748 1.748 0 0 0-.13.38c-.048.246-.012.37.106.37.144.008.316-.204.524-.63.096-.214.146-.438.154-.666-.254.062-.47.244-.654.546m1.642-1.678c.214.2.348.462.404.786.072.468-.024.996-.284 1.582a2.42 2.42 0 0 1-.382.564c-.158.18-.314.326-.464.44-.15.116-.296.24-.44.376a2.19 2.19 0 0 0-.328.38.695.695 0 0 0-.094.428c.012.166.084.348.22.546.516.518 1.3.774 2.354.774.674 0 1.338-.052 1.994-.16a15.958 15.958 0 0 0 1.75-.38 13.03 13.03 0 0 0 1.646-.614c.586-.26 1.078-.498 1.474-.708.396-.21.876-.48 1.44-.814.158-.08.31-.11.456-.094a.537.537 0 0 1 .364.184.966.966 0 0 1 .204.356.62.62 0 0 1-.026.41.685.685 0 0 1-.308.346c-.58.332-1.078.61-1.494.832-.416.222-.94.474-1.576.756-.634.28-1.232.504-1.796.666-.562.162-1.208.304-1.932.422-.726.118-1.456.178-2.196.178-1.424 0-2.536-.388-3.33-1.166a3.676 3.676 0 0 1-.904-1.54 4.3 4.3 0 0 1-.142-1.796c.08-.606.266-1.2.558-1.778.232-.388.51-.704.84-.946a1.81 1.81 0 0 1 1.1-.362c.358 0 .654.11.892.332"/>
        <path fill="#B7CDC1" d="M84.019 86.618c.12.144.182.318.19.524.008.174-.04.372-.142.594a1.07 1.07 0 0 1-.202.274 2.713 2.713 0 0 0-.178.202c-.026.342.032.52.166.536.134.016.364-.072.69-.262.166-.088.298-.154.392-.202 1.132-.626 2.296-.94 3.484-.94a.685.685 0 0 1 .46.13.601.601 0 0 1 .226.352c.028.138.028.276 0 .41a.59.59 0 0 1-.226.344.726.726 0 0 1-.46.144 5.83 5.83 0 0 0-2.324.476 7.094 7.094 0 0 0-1.992 1.272.993.993 0 0 0-.16.19c-.06.088-.106.148-.136.178.054.976.046 1.674-.026 2.094-.07.452-.206.81-.404 1.07a1.41 1.41 0 0 1-.488.416c-.206.112-.42.168-.642.168-.198 0-.386-.056-.566-.168a1.091 1.091 0 0 1-.396-.404c-.152-.246-.226-.538-.226-.88 0-.578.23-1.212.688-1.902.216-.334.382-.674.5-1.024.12-.348.15-.638.094-.868-.03-.5-.046-.904-.046-1.214a.719.719 0 0 1 .036-.344c.022-.34.056-.57.094-.69.072-.198.174-.36.31-.488a.933.933 0 0 1 .666-.274.77.77 0 0 1 .618.286"/>
        <path fill="#B7CDC1" d="M96.466 75.622c-.052.028-.09.05-.114.066-.022.016-.064.046-.118.09a3.26 3.26 0 0 0-.19.16c-.58.53-1.212 1.26-1.904 2.188a.597.597 0 0 0-.07.096c-1.348 1.736-1.764 2.604-1.248 2.604a.83.83 0 0 0 .224-.03c.072-.018.134-.038.192-.052a.657.657 0 0 0 .178-.096c.062-.048.116-.084.16-.108a.63.63 0 0 0 .162-.148c.062-.076.108-.128.14-.16.034-.032.084-.098.156-.196.07-.1.122-.166.148-.204l.172-.23c.088-.12.148-.202.178-.25.818-1.254 1.416-2.28 1.798-3.082.054-.11.138-.344.25-.702-.024.01-.064.026-.114.054m-4.834 7.13c-.334.04-.62.334-.858.88-.158.366-.25.624-.272.774-.032.27.154.186.558-.25.292-.404.512-.742.654-1.016.142-.274.142-.406 0-.398a.434.434 0 0 0-.082.01m5.886-8.772c.166.076.302.182.406.316.166.23.238.52.212.868-.032.42-.216.988-.556 1.702-.32.658-.768 1.45-1.346 2.378-.166.27-.294.478-.382.626a2.402 2.402 0 0 0-.206.438c-.052.148-.064.25-.038.31.03.06.09.11.186.154s.23.062.404.054c.174-.008.4-.028.678-.06l1.998-.13h.036a.648.648 0 0 1 .54.226c.14.158.196.344.168.552a.66.66 0 0 1-.328.494l-1.106.69a.644.644 0 0 1-.648.054.675.675 0 0 1-.41-.518l-1.522.096-.5.036c-.118.008-.25.024-.392.052-.142.028-.24.044-.292.048a.637.637 0 0 0-.238.102c-.106.064-.174.102-.196.118a1.73 1.73 0 0 0-.184.198c-.1.114-.162.192-.184.236-.026.044-.1.158-.226.34-.128.182-.222.316-.288.404a69.75 69.75 0 0 1-1.782 2.308 35.172 35.172 0 0 1-1.392 1.652c-.174.184-.32.358-.434.524a2.003 2.003 0 0 0-.266.536 4.68 4.68 0 0 0-.144.51 2.494 2.494 0 0 0-.03.608c.012.254.028.472.048.66.02.186.054.462.1.826.208.824.628 1.452 1.262 1.88.744.498 1.788.748 3.126.748.81 0 1.584-.066 2.328-.202.74-.134 1.408-.312 1.998-.534.59-.222 1.158-.498 1.7-.828a10.415 10.415 0 0 0 1.434-1.028c.412-.356.808-.756 1.196-1.196.382-.44.712-.858.986-1.254s.54-.826.802-1.286a.697.697 0 0 1 .344-.308.615.615 0 0 1 .412-.024.96.96 0 0 1 .356.202c.11.096.17.216.186.362a.827.827 0 0 1-.096.458c-.278.486-.57.948-.88 1.386-.31.442-.68.902-1.106 1.386-.428.484-.878.926-1.35 1.326a12.621 12.621 0 0 1-3.534 2.088c-.662.254-1.4.456-2.216.606-.818.152-1.67.226-2.56.226-1.616 0-2.914-.324-3.888-.976-.936-.626-1.55-1.522-1.844-2.686-.262-1.04-.242-2.304.062-3.796a.52.52 0 0 1 .058-.202 19.219 19.219 0 0 1 1.024-3.364l.058-.144c.316-.714.384-1.142.2-1.284-.18-.144-.914-.192-2.198-.144a.683.683 0 0 1-.464-.106.583.583 0 0 1-.244-.334 1.09 1.09 0 0 1-.03-.41.557.557 0 0 1 .202-.362.699.699 0 0 1 .44-.168l1.594-.106c.358 0 .676-.03.95-.09.278-.06.51-.134.698-.226.186-.09.366-.228.542-.41.172-.182.316-.354.426-.518.112-.162.25-.386.416-.67.47-.754.948-1.456 1.44-2.106.746-.992 1.436-1.78 2.07-2.368.27-.254.48-.44.63-.558a2.79 2.79 0 0 1 .578-.338c.234-.108.468-.162.706-.162.166 0 .334.038.5.112"/>
        <path fill="#B7CDC1" d="M104.083 87.118c-.016.016-.022.062-.018.136.004.076-.002.126-.018.15a.66.66 0 0 1 .644.048.674.674 0 0 1 .334.558c.212-.54.296-.924.248-1.154-.016-.078-.04-.13-.07-.154-.056-.04-.164-.06-.324-.06-.332 0-.596.16-.796.476m1.968-1.5c.306.24.498.564.578.976.12.596-.006 1.302-.38 2.118-.126.27-.222.488-.286.654a.83.83 0 0 0-.06.446.748.748 0 0 0 .096.286c.04.06.158.112.356.16.198.048.376.078.536.096.158.014.428.034.81.058.212.018.376.028.488.036a13.62 13.62 0 0 0 2.176-.208 10.873 10.873 0 0 0 1.736-.446 8.083 8.083 0 0 0 1.396-.66c.45-.266.818-.516 1.108-.756.288-.238.592-.51.91-.82a.674.674 0 0 1 .41-.22.576.576 0 0 1 .404.084.92.92 0 0 1 .286.29c.074.12.104.254.09.406a.693.693 0 0 1-.216.416c-.342.334-.684.638-1.03.916a10.24 10.24 0 0 1-1.29.868c-.514.3-1.05.554-1.612.76a12.14 12.14 0 0 1-1.966.518c-.754.14-1.55.216-2.39.232h-.012c-.446 0-.892-.028-1.34-.084a11.082 11.082 0 0 1-1.094-.178 37.565 37.565 0 0 0-.85-.178 6 6 0 0 0-.618-.096 1.107 1.107 0 0 0-.406.06 1.96 1.96 0 0 1-.892.226.85.85 0 0 1-.456-.154.809.809 0 0 1-.328-.356 1.1 1.1 0 0 1-.06-.632c.048-.27.174-.602.38-.998.024-.048.066-.11.124-.186.06-.074.102-.132.128-.172a4.202 4.202 0 0 1-.09-.172c-.046-.082-.072-.144-.09-.184-.222-.848-.12-1.622.31-2.32.214-.34.492-.616.838-.826.344-.21.722-.316 1.134-.316.478 0 .868.12 1.172.356"/>
        <path fill="#B7CDC1" d="M121.14 87.428c.142.142.286.294.43.458.142.162.316.37.522.624.206.254.348.424.428.51.54.644 1.05 1.138 1.528 1.482.478.346.998.518 1.552.518 1.34 0 2.676-.396 4.008-1.19a8.49 8.49 0 0 0 1.464-1.082c.428-.398.73-.748.904-1.06a.694.694 0 0 1 .346-.308.567.567 0 0 1 .404-.018c.124.044.244.11.35.202.106.092.17.212.188.364a.71.71 0 0 1-.098.452c-.262.46-.64.918-1.132 1.374a10.25 10.25 0 0 1-1.71 1.266c-1.556.92-3.13 1.38-4.724 1.38-.444 0-.87-.07-1.278-.21a3.904 3.904 0 0 1-1.148-.618 9.405 9.405 0 0 1-.904-.772 13.271 13.271 0 0 1-.808-.886l-.442-.53c-.204-.25-.372-.446-.5-.588a6.938 6.938 0 0 0-.354-.38c-.342-.342-.608-.512-.798-.512-.176 0-.404.122-.688.368-.32.262-.664.642-1.036 1.142-.422.564-.972 1.436-1.652 2.616-.13.224-.308.342-.536.358a.705.705 0 0 1-.584-.226c-.158-.168-.208-.374-.154-.62l.786-3.65c.046-.238.164-.406.348-.5a.708.708 0 0 1 .58-.036.652.652 0 0 1 .404.38c.022.088.048.15.076.186.026.036.062.044.102.022a.332.332 0 0 0 .1-.07c.028-.028.072-.076.138-.15l.154-.172c.038-.042.096-.098.166-.166.072-.068.142-.124.214-.172.548-.46 1.074-.69 1.582-.69.57 0 1.16.3 1.772.904"/>
        <g transform="translate(131 83.138)">
            <mask id="j" fill="#fff">
                <use xlink:href="#i"/>
            </mask>
            <path fill="#B7CDC1" d="M2.747 2.779a1.748 1.748 0 0 0-.13.38c-.048.246-.012.37.106.37.144.008.316-.204.524-.63.096-.214.146-.438.154-.666-.254.062-.47.244-.654.546M4.39 1.1c.214.2.348.462.404.786.072.468-.024.996-.284 1.582a2.42 2.42 0 0 1-.382.564c-.158.18-.314.326-.464.44-.15.116-.296.24-.44.376a2.19 2.19 0 0 0-.328.38.71.71 0 0 0-.096.428c.014.166.086.348.222.546.516.518 1.3.774 2.354.774.674 0 1.338-.052 1.994-.16a15.815 15.815 0 0 0 1.748-.38c.51-.148 1.06-.352 1.648-.614.586-.26 1.078-.498 1.474-.708.396-.21.876-.48 1.44-.814.158-.08.31-.11.456-.094a.537.537 0 0 1 .364.184.966.966 0 0 1 .204.356.62.62 0 0 1-.026.41.685.685 0 0 1-.308.346c-.58.332-1.078.61-1.496.832-.416.222-.938.474-1.574.756-.634.28-1.234.504-1.796.666-.562.162-1.208.304-1.932.422-.726.118-1.456.178-2.196.178-1.426 0-2.536-.388-3.33-1.166a3.655 3.655 0 0 1-.904-1.54A4.3 4.3 0 0 1 1 3.855c.08-.606.266-1.2.558-1.778.232-.388.51-.704.84-.946a1.81 1.81 0 0 1 1.1-.362c.358 0 .654.11.892.332" mask="url(#j)"/>
        </g>
        <path fill="#B7CDC1" d="M33.448 32.584c.096 0 .312.016.648.048s.752.064 1.248.096a44.09 44.09 0 0 0 1.608.072 62.229 62.229 0 0 0 3.456 0 49.695 49.695 0 0 0 2.88-.168c.352-.032.576-.048.672-.048.032.064.056.176.072.336.016.16.024.288.024.384 0 .384-.16.608-.48.672-.8.128-1.456.328-1.968.6-.512.272-.768.712-.768 1.32v15.936c0 .608.304 1.064.912 1.368.608.304 1.328.52 2.16.648.32.064.48.288.48.672 0 .096-.016.232-.048.408-.032.176-.048.28-.048.312-.096 0-.336-.016-.72-.048-.384-.032-.84-.064-1.368-.096a49.814 49.814 0 0 0-1.728-.072 64.854 64.854 0 0 0-3.552 0c-.592.016-1.144.04-1.656.072-.512.032-.96.064-1.344.096-.384.032-.624.048-.72.048 0-.032-.016-.136-.048-.312a2.454 2.454 0 0 1-.048-.408c0-.384.16-.608.48-.672.832-.16 1.536-.376 2.112-.648.576-.272.864-.712.864-1.32V35.896c0-.608-.264-1.048-.792-1.32s-1.176-.472-1.944-.6c-.32-.064-.48-.288-.48-.672 0-.096.008-.224.024-.384s.04-.272.072-.336zM59.32 55.576c-1.696 0-3.232-.28-4.608-.84-1.376-.56-2.544-1.352-3.504-2.376-.96-1.024-1.704-2.248-2.232-3.672-.528-1.424-.792-3-.792-4.728 0-1.632.28-3.168.84-4.608.56-1.44 1.336-2.688 2.328-3.744a11.187 11.187 0 0 1 3.528-2.52c1.36-.624 2.84-.936 4.44-.936 1.6 0 3.08.296 4.44.888a10.744 10.744 0 0 1 3.528 2.448c.992 1.04 1.768 2.28 2.328 3.72.56 1.44.84 3.024.84 4.752 0 1.632-.264 3.152-.792 4.56a11.364 11.364 0 0 1-2.232 3.696c-.96 1.056-2.128 1.88-3.504 2.472-1.376.592-2.912.888-4.608.888zM52.936 43.96c0 1.6.168 2.984.504 4.152.336 1.168.8 2.152 1.392 2.952.592.8 1.28 1.392 2.064 1.776a5.653 5.653 0 0 0 2.52.576c.832 0 1.624-.192 2.376-.576.752-.384 1.416-.96 1.992-1.728.576-.768 1.032-1.744 1.368-2.928.336-1.184.504-2.592.504-4.224 0-1.632-.168-3.056-.504-4.272-.336-1.216-.792-2.216-1.368-3-.576-.784-1.248-1.376-2.016-1.776-.768-.4-1.584-.6-2.448-.6a5.4 5.4 0 0 0-2.448.576c-.768.384-1.448.968-2.04 1.752-.592.784-1.056 1.784-1.392 3-.336 1.216-.504 2.656-.504 4.32zm32.016 11.616c-1.696 0-3.232-.28-4.608-.84-1.376-.56-2.544-1.352-3.504-2.376-.96-1.024-1.704-2.248-2.232-3.672-.528-1.424-.792-3-.792-4.728 0-1.632.28-3.168.84-4.608.56-1.44 1.336-2.688 2.328-3.744a11.187 11.187 0 0 1 3.528-2.52c1.36-.624 2.84-.936 4.44-.936 1.6 0 3.08.296 4.44.888a10.744 10.744 0 0 1 3.528 2.448c.992 1.04 1.768 2.28 2.328 3.72.56 1.44.84 3.024.84 4.752 0 1.632-.264 3.152-.792 4.56a11.364 11.364 0 0 1-2.232 3.696c-.96 1.056-2.128 1.88-3.504 2.472-1.376.592-2.912.888-4.608.888zM78.568 43.96c0 1.6.168 2.984.504 4.152.336 1.168.8 2.152 1.392 2.952.592.8 1.28 1.392 2.064 1.776a5.653 5.653 0 0 0 2.52.576c.832 0 1.624-.192 2.376-.576.752-.384 1.416-.96 1.992-1.728.576-.768 1.032-1.744 1.368-2.928.336-1.184.504-2.592.504-4.224 0-1.632-.168-3.056-.504-4.272-.336-1.216-.792-2.216-1.368-3-.576-.784-1.248-1.376-2.016-1.776-.768-.4-1.584-.6-2.448-.6a5.4 5.4 0 0 0-2.448.576c-.768.384-1.448.968-2.04 1.752-.592.784-1.056 1.784-1.392 3-.336 1.216-.504 2.656-.504 4.32zm21.648-11.376c.096 0 .312.016.648.048s.752.064 1.248.096a44.09 44.09 0 0 0 1.608.072 62.229 62.229 0 0 0 3.456 0 49.696 49.696 0 0 0 2.88-.168c.352-.032.576-.048.672-.048.032.064.056.176.072.336.016.16.024.288.024.384 0 .384-.16.608-.48.672-.8.128-1.456.328-1.968.6-.512.272-.768.712-.768 1.32v15.936c0 .608.304 1.064.912 1.368.608.304 1.328.52 2.16.648.32.064.48.288.48.672 0 .096-.016.232-.048.408-.032.176-.048.28-.048.312-.096 0-.336-.016-.72-.048-.384-.032-.84-.064-1.368-.096a49.814 49.814 0 0 0-1.728-.072 64.854 64.854 0 0 0-3.552 0c-.592.016-1.144.04-1.656.072-.512.032-.96.064-1.344.096-.384.032-.624.048-.72.048 0-.032-.016-.136-.048-.312a2.454 2.454 0 0 1-.048-.408c0-.384.16-.608.48-.672.832-.16 1.536-.376 2.112-.648.576-.272.864-.712.864-1.32V35.896c0-.608-.264-1.048-.792-1.32s-1.176-.472-1.944-.6c-.32-.064-.48-.288-.48-.672 0-.096.008-.224.024-.384s.04-.272.072-.336z"/>
    </g>
</svg>
