<svg xmlns="http://www.w3.org/2000/svg" width="27" height="27" viewBox="0 0 27 27">
    <g fill="#697851" fill-rule="nonzero">
        <path d="M26.21 8.971a13.405 13.405 0 0 0-6.927-7.66A13.404 13.404 0 0 0 8.969.792a13.405 13.405 0 0 0-7.66 6.926 13.405 13.405 0 0 0-.518 10.314.55.55 0 0 0 1.034-.369 12.313 12.313 0 0 1 .477-9.474 12.313 12.313 0 0 1 7.036-6.362 12.314 12.314 0 0 1 9.474.476 12.314 12.314 0 0 1 6.363 7.037 12.313 12.313 0 0 1-.477 9.474 12.313 12.313 0 0 1-7.036 6.362 12.364 12.364 0 0 1-10.52-1.034.549.549 0 1 0-.562.943 13.476 13.476 0 0 0 6.914 1.913c1.526 0 3.06-.26 4.537-.787a13.405 13.405 0 0 0 7.66-6.926 13.404 13.404 0 0 0 .518-10.314z"/>
        <path d="M19.54 13.502a.55.55 0 0 0-.549-.55H5.315a.55.55 0 0 0 0 1.099H18.99a.55.55 0 0 0 .55-.55z"/>
        <path d="M15.164 19.246a.549.549 0 1 0 .777.776l6.132-6.132a.549.549 0 0 0 0-.777l-6.132-6.132a.549.549 0 1 0-.777.777l5.744 5.744-5.744 5.744z"/>
    </g>
</svg>
